%TF.GenerationSoftware,KiCad,Pcbnew,4.0.7-e2-6376~58~ubuntu16.04.1*%
%TF.CreationDate,2018-05-15T18:32:14-07:00*%
%TF.ProjectId,testboard,74657374626F6172642E6B696361645F,v1.2*%
%TF.FileFunction,Legend,Top*%
%FSLAX46Y46*%
G04 Gerber Fmt 4.6, Leading zero omitted, Abs format (unit mm)*
G04 Created by KiCad (PCBNEW 4.0.7-e2-6376~58~ubuntu16.04.1) date Tue May 15 18:32:14 2018*
%MOMM*%
%LPD*%
G01*
G04 APERTURE LIST*
%ADD10C,0.350000*%
%ADD11C,0.152400*%
%ADD12C,0.150000*%
%ADD13R,1.750060X1.953260*%
%ADD14R,0.952400X0.902400*%
G04 APERTURE END LIST*
D10*
D11*
X94990000Y-81625000D02*
X94990000Y-83350000D01*
D12*
X95640000Y-83600000D02*
X99240000Y-83600000D01*
X95640000Y-81500000D02*
X99240000Y-81500000D01*
X97890000Y-82250000D02*
X97890000Y-82850000D01*
X97890000Y-82850000D02*
X97590000Y-82550000D01*
X97590000Y-82550000D02*
X97790000Y-82350000D01*
X97790000Y-82350000D02*
X97790000Y-82600000D01*
X97790000Y-82600000D02*
X97740000Y-82550000D01*
X97490000Y-82550000D02*
X97990000Y-82050000D01*
X97990000Y-82050000D02*
X97990000Y-83050000D01*
X97990000Y-83050000D02*
X97490000Y-82550000D01*
D11*
X95873000Y-74295000D02*
X95873000Y-75565000D01*
X98603500Y-74295000D02*
X98603500Y-75565000D01*
D12*
X95873000Y-74295000D02*
X98603500Y-74295000D01*
X98603500Y-75565000D02*
X95873000Y-75565000D01*
X96570953Y-80827381D02*
X96094762Y-80827381D01*
X96094762Y-79827381D01*
X96904286Y-80303571D02*
X97237620Y-80303571D01*
X97380477Y-80827381D02*
X96904286Y-80827381D01*
X96904286Y-79827381D01*
X97380477Y-79827381D01*
X97809048Y-80827381D02*
X97809048Y-79827381D01*
X98047143Y-79827381D01*
X98190001Y-79875000D01*
X98285239Y-79970238D01*
X98332858Y-80065476D01*
X98380477Y-80255952D01*
X98380477Y-80398810D01*
X98332858Y-80589286D01*
X98285239Y-80684524D01*
X98190001Y-80779762D01*
X98047143Y-80827381D01*
X97809048Y-80827381D01*
X99332858Y-80827381D02*
X98761429Y-80827381D01*
X99047143Y-80827381D02*
X99047143Y-79827381D01*
X98951905Y-79970238D01*
X98856667Y-80065476D01*
X98761429Y-80113095D01*
X99567834Y-75064881D02*
X99234500Y-74588690D01*
X98996405Y-75064881D02*
X98996405Y-74064881D01*
X99377358Y-74064881D01*
X99472596Y-74112500D01*
X99520215Y-74160119D01*
X99567834Y-74255357D01*
X99567834Y-74398214D01*
X99520215Y-74493452D01*
X99472596Y-74541071D01*
X99377358Y-74588690D01*
X98996405Y-74588690D01*
X100520215Y-75064881D02*
X99948786Y-75064881D01*
X100234500Y-75064881D02*
X100234500Y-74064881D01*
X100139262Y-74207738D01*
X100044024Y-74302976D01*
X99948786Y-74350595D01*
%LPC*%
D13*
X99209860Y-82550000D03*
X96370140Y-82550000D03*
D14*
X96520000Y-74930000D03*
X98020000Y-74930000D03*
M02*
