G04 This is an RS-274x file exported by *
G04 gerbv version 2.6.0 *
G04 More information is available about gerbv at *
G04 http://gerbv.gpleda.org/ *
G04 --End of header info--*
%MOIN*%
%FSLAX34Y34*%
%IPPOS*%
G04 --Define apertures--*
%ADD10C,0.0138*%
%ADD11C,0.0020*%
%ADD12C,0.0020*%
%ADD13C,0.0059*%
%ADD14C,0.0060*%
G04 --Start main section--*
G54D11*
G01X0039484Y-032972D02*
G01X0039484Y-032028D01*
G01X0037398Y-032972D02*
G01X0039484Y-032972D01*
G01X0037398Y-032028D02*
G01X0037398Y-032972D01*
G01X0039484Y-032028D02*
G01X0037398Y-032028D01*
G01X0037516Y-032028D02*
G01X0037516Y-032972D01*
G54D12*
G01X0037724Y-029205D02*
G01X0038866Y-029205D01*
G01X0037724Y-029205D02*
G01X0037724Y-029795D01*
G01X0038866Y-029205D02*
G01X0038866Y-029795D01*
G01X0037724Y-029795D02*
G01X0038866Y-029795D01*
G54D13*
G01X0038059Y-032678D02*
G01X0037872Y-032678D01*
G01X0037872Y-032678D02*
G01X0037872Y-032284D01*
G01X0038191Y-032472D02*
G01X0038322Y-032472D01*
G01X0038378Y-032678D02*
G01X0038191Y-032678D01*
G01X0038191Y-032678D02*
G01X0038191Y-032284D01*
G01X0038191Y-032284D02*
G01X0038378Y-032284D01*
G01X0038547Y-032678D02*
G01X0038547Y-032284D01*
G01X0038547Y-032284D02*
G01X0038641Y-032284D01*
G01X0038641Y-032284D02*
G01X0038697Y-032303D01*
G01X0038697Y-032303D02*
G01X0038734Y-032341D01*
G01X0038734Y-032341D02*
G01X0038753Y-032378D01*
G01X0038753Y-032378D02*
G01X0038772Y-032453D01*
G01X0038772Y-032453D02*
G01X0038772Y-032509D01*
G01X0038772Y-032509D02*
G01X0038753Y-032584D01*
G01X0038753Y-032584D02*
G01X0038734Y-032622D01*
G01X0038734Y-032622D02*
G01X0038697Y-032659D01*
G01X0038697Y-032659D02*
G01X0038641Y-032678D01*
G01X0038641Y-032678D02*
G01X0038547Y-032678D01*
G01X0039147Y-032678D02*
G01X0038922Y-032678D01*
G01X0039034Y-032678D02*
G01X0039034Y-032284D01*
G01X0039034Y-032284D02*
G01X0038997Y-032341D01*
G01X0038997Y-032341D02*
G01X0038959Y-032378D01*
G01X0038959Y-032378D02*
G01X0038922Y-032397D01*
G01X0038278Y-029658D02*
G01X0038173Y-029508D01*
G01X0038098Y-029658D02*
G01X0038098Y-029343D01*
G01X0038098Y-029343D02*
G01X0038218Y-029343D01*
G01X0038218Y-029343D02*
G01X0038248Y-029358D01*
G01X0038248Y-029358D02*
G01X0038263Y-029373D01*
G01X0038263Y-029373D02*
G01X0038278Y-029403D01*
G01X0038278Y-029403D02*
G01X0038278Y-029448D01*
G01X0038278Y-029448D02*
G01X0038263Y-029478D01*
G01X0038263Y-029478D02*
G01X0038248Y-029493D01*
G01X0038248Y-029493D02*
G01X0038218Y-029508D01*
G01X0038218Y-029508D02*
G01X0038098Y-029508D01*
G01X0038578Y-029658D02*
G01X0038398Y-029658D01*
G01X0038488Y-029658D02*
G01X0038488Y-029343D01*
G01X0038488Y-029343D02*
G01X0038458Y-029388D01*
G01X0038458Y-029388D02*
G01X0038428Y-029418D01*
G01X0038428Y-029418D02*
G01X0038398Y-029433D01*
G01X0000000Y0000000D02*
G54D14*
G01X0042000Y-034000D02*
G01X0042000Y-028000D01*
G01X0035000Y-034000D02*
G01X0042000Y-034000D01*
G01X0035000Y-028000D02*
G01X0035000Y-034000D01*
G01X0042000Y-028000D02*
G01X0035000Y-028000D01*
M02*
