G04 This is an RS-274x file exported by *
G04 gerbv version 2.6.0 *
G04 More information is available about gerbv at *
G04 http://gerbv.gpleda.org/ *
G04 --End of header info--*
%MOIN*%
%FSLAX34Y34*%
%IPPOS*%
G04 --Define apertures--*
%ADD10C,0.0050*%
%ADD11C,0.0060*%
%ADD12C,0.0079*%
%ADD13C,0.0118*%
%ADD14C,0.0138*%
%ADD15C,0.0059*%
G04 --Start main section--*
G54D11*
G01X0042000Y-034000D02*
G01X0042000Y-028000D01*
G01X0035000Y-034000D02*
G01X0042000Y-034000D01*
G01X0035000Y-028000D02*
G01X0035000Y-034000D01*
G01X0042000Y-028000D02*
G01X0035000Y-028000D01*
G54D12*
G01X0038995Y-030475D02*
G01X0039125Y-030605D01*
G01X0039125Y-030475D02*
G01X0038995Y-030605D01*
G54D13*
G01X0036039Y-035864D02*
G01X0036039Y-034682D01*
G01X0036039Y-034682D02*
G01X0036320Y-034682D01*
G01X0036320Y-034682D02*
G01X0036489Y-034739D01*
G01X0036489Y-034739D02*
G01X0036601Y-034851D01*
G01X0036601Y-034851D02*
G01X0036657Y-034964D01*
G01X0036657Y-034964D02*
G01X0036714Y-035189D01*
G01X0036714Y-035189D02*
G01X0036714Y-035357D01*
G01X0036714Y-035357D02*
G01X0036657Y-035582D01*
G01X0036657Y-035582D02*
G01X0036601Y-035695D01*
G01X0036601Y-035695D02*
G01X0036489Y-035807D01*
G01X0036489Y-035807D02*
G01X0036320Y-035864D01*
G01X0036320Y-035864D02*
G01X0036039Y-035864D01*
G01X0037220Y-035864D02*
G01X0037220Y-035076D01*
G01X0037220Y-035301D02*
G01X0037276Y-035189D01*
G01X0037276Y-035189D02*
G01X0037332Y-035132D01*
G01X0037332Y-035132D02*
G01X0037445Y-035076D01*
G01X0037445Y-035076D02*
G01X0037557Y-035076D01*
G01X0037951Y-035864D02*
G01X0037951Y-035076D01*
G01X0037951Y-034682D02*
G01X0037895Y-034739D01*
G01X0037895Y-034739D02*
G01X0037951Y-034795D01*
G01X0037951Y-034795D02*
G01X0038007Y-034739D01*
G01X0038007Y-034739D02*
G01X0037951Y-034682D01*
G01X0037951Y-034682D02*
G01X0037951Y-034795D01*
G01X0038682Y-035864D02*
G01X0038570Y-035807D01*
G01X0038570Y-035807D02*
G01X0038513Y-035695D01*
G01X0038513Y-035695D02*
G01X0038513Y-034682D01*
G01X0039301Y-035864D02*
G01X0039188Y-035807D01*
G01X0039188Y-035807D02*
G01X0039132Y-035695D01*
G01X0039132Y-035695D02*
G01X0039132Y-034682D01*
G01X0040651Y-035864D02*
G01X0040651Y-034682D01*
G01X0040651Y-034682D02*
G01X0041044Y-035526D01*
G01X0041044Y-035526D02*
G01X0041438Y-034682D01*
G01X0041438Y-034682D02*
G01X0041438Y-035864D01*
G01X0042507Y-035864D02*
G01X0042507Y-035245D01*
G01X0042507Y-035245D02*
G01X0042450Y-035132D01*
G01X0042450Y-035132D02*
G01X0042338Y-035076D01*
G01X0042338Y-035076D02*
G01X0042113Y-035076D01*
G01X0042113Y-035076D02*
G01X0042000Y-035132D01*
G01X0042507Y-035807D02*
G01X0042394Y-035864D01*
G01X0042394Y-035864D02*
G01X0042113Y-035864D01*
G01X0042113Y-035864D02*
G01X0042000Y-035807D01*
G01X0042000Y-035807D02*
G01X0041944Y-035695D01*
G01X0041944Y-035695D02*
G01X0041944Y-035582D01*
G01X0041944Y-035582D02*
G01X0042000Y-035470D01*
G01X0042000Y-035470D02*
G01X0042113Y-035414D01*
G01X0042113Y-035414D02*
G01X0042394Y-035414D01*
G01X0042394Y-035414D02*
G01X0042507Y-035357D01*
G01X0043069Y-035076D02*
G01X0043069Y-036257D01*
G01X0043069Y-035132D02*
G01X0043181Y-035076D01*
G01X0043181Y-035076D02*
G01X0043406Y-035076D01*
G01X0043406Y-035076D02*
G01X0043519Y-035132D01*
G01X0043519Y-035132D02*
G01X0043575Y-035189D01*
G01X0043575Y-035189D02*
G01X0043631Y-035301D01*
G01X0043631Y-035301D02*
G01X0043631Y-035639D01*
G01X0043631Y-035639D02*
G01X0043575Y-035751D01*
G01X0043575Y-035751D02*
G01X0043519Y-035807D01*
G01X0043519Y-035807D02*
G01X0043406Y-035864D01*
G01X0043406Y-035864D02*
G01X0043181Y-035864D01*
G01X0043181Y-035864D02*
G01X0043069Y-035807D01*
G01X0044138Y-035751D02*
G01X0044194Y-035807D01*
G01X0044194Y-035807D02*
G01X0044138Y-035864D01*
G01X0044138Y-035864D02*
G01X0044081Y-035807D01*
G01X0044081Y-035807D02*
G01X0044138Y-035751D01*
G01X0044138Y-035751D02*
G01X0044138Y-035864D01*
G01X0044138Y-035132D02*
G01X0044194Y-035189D01*
G01X0044194Y-035189D02*
G01X0044138Y-035245D01*
G01X0044138Y-035245D02*
G01X0044081Y-035189D01*
G01X0044081Y-035189D02*
G01X0044138Y-035132D01*
G01X0044138Y-035132D02*
G01X0044138Y-035245D01*
G01X0034840Y-037745D02*
G01X0034970Y-037875D01*
G01X0034970Y-037745D02*
G01X0034840Y-037875D01*
G01X0036264Y-037163D02*
G01X0036376Y-037163D01*
G01X0036376Y-037163D02*
G01X0036489Y-037219D01*
G01X0036489Y-037219D02*
G01X0036545Y-037275D01*
G01X0036545Y-037275D02*
G01X0036601Y-037388D01*
G01X0036601Y-037388D02*
G01X0036657Y-037613D01*
G01X0036657Y-037613D02*
G01X0036657Y-037894D01*
G01X0036657Y-037894D02*
G01X0036601Y-038119D01*
G01X0036601Y-038119D02*
G01X0036545Y-038231D01*
G01X0036545Y-038231D02*
G01X0036489Y-038288D01*
G01X0036489Y-038288D02*
G01X0036376Y-038344D01*
G01X0036376Y-038344D02*
G01X0036264Y-038344D01*
G01X0036264Y-038344D02*
G01X0036151Y-038288D01*
G01X0036151Y-038288D02*
G01X0036095Y-038231D01*
G01X0036095Y-038231D02*
G01X0036039Y-038119D01*
G01X0036039Y-038119D02*
G01X0035982Y-037894D01*
G01X0035982Y-037894D02*
G01X0035982Y-037613D01*
G01X0035982Y-037613D02*
G01X0036039Y-037388D01*
G01X0036039Y-037388D02*
G01X0036095Y-037275D01*
G01X0036095Y-037275D02*
G01X0036151Y-037219D01*
G01X0036151Y-037219D02*
G01X0036264Y-037163D01*
G01X0037163Y-038231D02*
G01X0037220Y-038288D01*
G01X0037220Y-038288D02*
G01X0037163Y-038344D01*
G01X0037163Y-038344D02*
G01X0037107Y-038288D01*
G01X0037107Y-038288D02*
G01X0037163Y-038231D01*
G01X0037163Y-038231D02*
G01X0037163Y-038344D01*
G01X0037613Y-037163D02*
G01X0038345Y-037163D01*
G01X0038345Y-037163D02*
G01X0037951Y-037613D01*
G01X0037951Y-037613D02*
G01X0038120Y-037613D01*
G01X0038120Y-037613D02*
G01X0038232Y-037669D01*
G01X0038232Y-037669D02*
G01X0038288Y-037725D01*
G01X0038288Y-037725D02*
G01X0038345Y-037838D01*
G01X0038345Y-037838D02*
G01X0038345Y-038119D01*
G01X0038345Y-038119D02*
G01X0038288Y-038231D01*
G01X0038288Y-038231D02*
G01X0038232Y-038288D01*
G01X0038232Y-038288D02*
G01X0038120Y-038344D01*
G01X0038120Y-038344D02*
G01X0037782Y-038344D01*
G01X0037782Y-038344D02*
G01X0037670Y-038288D01*
G01X0037670Y-038288D02*
G01X0037613Y-038231D01*
G01X0038738Y-037163D02*
G01X0039469Y-037163D01*
G01X0039469Y-037163D02*
G01X0039076Y-037613D01*
G01X0039076Y-037613D02*
G01X0039244Y-037613D01*
G01X0039244Y-037613D02*
G01X0039357Y-037669D01*
G01X0039357Y-037669D02*
G01X0039413Y-037725D01*
G01X0039413Y-037725D02*
G01X0039469Y-037838D01*
G01X0039469Y-037838D02*
G01X0039469Y-038119D01*
G01X0039469Y-038119D02*
G01X0039413Y-038231D01*
G01X0039413Y-038231D02*
G01X0039357Y-038288D01*
G01X0039357Y-038288D02*
G01X0039244Y-038344D01*
G01X0039244Y-038344D02*
G01X0038907Y-038344D01*
G01X0038907Y-038344D02*
G01X0038795Y-038288D01*
G01X0038795Y-038288D02*
G01X0038738Y-038231D01*
G01X0039976Y-038344D02*
G01X0039976Y-037556D01*
G01X0039976Y-037669D02*
G01X0040032Y-037613D01*
G01X0040032Y-037613D02*
G01X0040144Y-037556D01*
G01X0040144Y-037556D02*
G01X0040313Y-037556D01*
G01X0040313Y-037556D02*
G01X0040426Y-037613D01*
G01X0040426Y-037613D02*
G01X0040482Y-037725D01*
G01X0040482Y-037725D02*
G01X0040482Y-038344D01*
G01X0040482Y-037725D02*
G01X0040538Y-037613D01*
G01X0040538Y-037613D02*
G01X0040651Y-037556D01*
G01X0040651Y-037556D02*
G01X0040819Y-037556D01*
G01X0040819Y-037556D02*
G01X0040932Y-037613D01*
G01X0040932Y-037613D02*
G01X0040988Y-037725D01*
G01X0040988Y-037725D02*
G01X0040988Y-038344D01*
G01X0041550Y-038344D02*
G01X0041550Y-037556D01*
G01X0041550Y-037669D02*
G01X0041607Y-037613D01*
G01X0041607Y-037613D02*
G01X0041719Y-037556D01*
G01X0041719Y-037556D02*
G01X0041888Y-037556D01*
G01X0041888Y-037556D02*
G01X0042000Y-037613D01*
G01X0042000Y-037613D02*
G01X0042057Y-037725D01*
G01X0042057Y-037725D02*
G01X0042057Y-038344D01*
G01X0042057Y-037725D02*
G01X0042113Y-037613D01*
G01X0042113Y-037613D02*
G01X0042225Y-037556D01*
G01X0042225Y-037556D02*
G01X0042394Y-037556D01*
G01X0042394Y-037556D02*
G01X0042507Y-037613D01*
G01X0042507Y-037613D02*
G01X0042563Y-037725D01*
G01X0042563Y-037725D02*
G01X0042563Y-038344D01*
G01X0044869Y-037106D02*
G01X0043856Y-038625D01*
G01X0046387Y-037163D02*
G01X0046500Y-037163D01*
G01X0046500Y-037163D02*
G01X0046612Y-037219D01*
G01X0046612Y-037219D02*
G01X0046669Y-037275D01*
G01X0046669Y-037275D02*
G01X0046725Y-037388D01*
G01X0046725Y-037388D02*
G01X0046781Y-037613D01*
G01X0046781Y-037613D02*
G01X0046781Y-037894D01*
G01X0046781Y-037894D02*
G01X0046725Y-038119D01*
G01X0046725Y-038119D02*
G01X0046669Y-038231D01*
G01X0046669Y-038231D02*
G01X0046612Y-038288D01*
G01X0046612Y-038288D02*
G01X0046500Y-038344D01*
G01X0046500Y-038344D02*
G01X0046387Y-038344D01*
G01X0046387Y-038344D02*
G01X0046275Y-038288D01*
G01X0046275Y-038288D02*
G01X0046219Y-038231D01*
G01X0046219Y-038231D02*
G01X0046162Y-038119D01*
G01X0046162Y-038119D02*
G01X0046106Y-037894D01*
G01X0046106Y-037894D02*
G01X0046106Y-037613D01*
G01X0046106Y-037613D02*
G01X0046162Y-037388D01*
G01X0046162Y-037388D02*
G01X0046219Y-037275D01*
G01X0046219Y-037275D02*
G01X0046275Y-037219D01*
G01X0046275Y-037219D02*
G01X0046387Y-037163D01*
G01X0047287Y-038231D02*
G01X0047343Y-038288D01*
G01X0047343Y-038288D02*
G01X0047287Y-038344D01*
G01X0047287Y-038344D02*
G01X0047231Y-038288D01*
G01X0047231Y-038288D02*
G01X0047287Y-038231D01*
G01X0047287Y-038231D02*
G01X0047287Y-038344D01*
G01X0048075Y-037163D02*
G01X0048187Y-037163D01*
G01X0048187Y-037163D02*
G01X0048300Y-037219D01*
G01X0048300Y-037219D02*
G01X0048356Y-037275D01*
G01X0048356Y-037275D02*
G01X0048412Y-037388D01*
G01X0048412Y-037388D02*
G01X0048468Y-037613D01*
G01X0048468Y-037613D02*
G01X0048468Y-037894D01*
G01X0048468Y-037894D02*
G01X0048412Y-038119D01*
G01X0048412Y-038119D02*
G01X0048356Y-038231D01*
G01X0048356Y-038231D02*
G01X0048300Y-038288D01*
G01X0048300Y-038288D02*
G01X0048187Y-038344D01*
G01X0048187Y-038344D02*
G01X0048075Y-038344D01*
G01X0048075Y-038344D02*
G01X0047962Y-038288D01*
G01X0047962Y-038288D02*
G01X0047906Y-038231D01*
G01X0047906Y-038231D02*
G01X0047850Y-038119D01*
G01X0047850Y-038119D02*
G01X0047793Y-037894D01*
G01X0047793Y-037894D02*
G01X0047793Y-037613D01*
G01X0047793Y-037613D02*
G01X0047850Y-037388D01*
G01X0047850Y-037388D02*
G01X0047906Y-037275D01*
G01X0047906Y-037275D02*
G01X0047962Y-037219D01*
G01X0047962Y-037219D02*
G01X0048075Y-037163D01*
G01X0049593Y-038344D02*
G01X0048918Y-038344D01*
G01X0049256Y-038344D02*
G01X0049256Y-037163D01*
G01X0049256Y-037163D02*
G01X0049143Y-037331D01*
G01X0049143Y-037331D02*
G01X0049031Y-037444D01*
G01X0049031Y-037444D02*
G01X0048918Y-037500D01*
G01X0049987Y-037163D02*
G01X0050718Y-037163D01*
G01X0050718Y-037163D02*
G01X0050324Y-037613D01*
G01X0050324Y-037613D02*
G01X0050493Y-037613D01*
G01X0050493Y-037613D02*
G01X0050606Y-037669D01*
G01X0050606Y-037669D02*
G01X0050662Y-037725D01*
G01X0050662Y-037725D02*
G01X0050718Y-037838D01*
G01X0050718Y-037838D02*
G01X0050718Y-038119D01*
G01X0050718Y-038119D02*
G01X0050662Y-038231D01*
G01X0050662Y-038231D02*
G01X0050606Y-038288D01*
G01X0050606Y-038288D02*
G01X0050493Y-038344D01*
G01X0050493Y-038344D02*
G01X0050156Y-038344D01*
G01X0050156Y-038344D02*
G01X0050043Y-038288D01*
G01X0050043Y-038288D02*
G01X0049987Y-038231D01*
G01X0051168Y-037163D02*
G01X0051168Y-037388D01*
G01X0051618Y-037163D02*
G01X0051618Y-037388D01*
G01X0053361Y-038794D02*
G01X0053305Y-038738D01*
G01X0053305Y-038738D02*
G01X0053193Y-038569D01*
G01X0053193Y-038569D02*
G01X0053136Y-038456D01*
G01X0053136Y-038456D02*
G01X0053080Y-038288D01*
G01X0053080Y-038288D02*
G01X0053024Y-038006D01*
G01X0053024Y-038006D02*
G01X0053024Y-037781D01*
G01X0053024Y-037781D02*
G01X0053080Y-037500D01*
G01X0053080Y-037500D02*
G01X0053136Y-037331D01*
G01X0053136Y-037331D02*
G01X0053193Y-037219D01*
G01X0053193Y-037219D02*
G01X0053305Y-037050D01*
G01X0053305Y-037050D02*
G01X0053361Y-036994D01*
G01X0054430Y-038344D02*
G01X0053755Y-038344D01*
G01X0054093Y-038344D02*
G01X0054093Y-037163D01*
G01X0054093Y-037163D02*
G01X0053980Y-037331D01*
G01X0053980Y-037331D02*
G01X0053868Y-037444D01*
G01X0053868Y-037444D02*
G01X0053755Y-037500D01*
G01X0055836Y-038344D02*
G01X0055836Y-037163D01*
G01X0056342Y-038344D02*
G01X0056342Y-037725D01*
G01X0056342Y-037725D02*
G01X0056286Y-037613D01*
G01X0056286Y-037613D02*
G01X0056174Y-037556D01*
G01X0056174Y-037556D02*
G01X0056005Y-037556D01*
G01X0056005Y-037556D02*
G01X0055892Y-037613D01*
G01X0055892Y-037613D02*
G01X0055836Y-037669D01*
G01X0057073Y-038344D02*
G01X0056961Y-038288D01*
G01X0056961Y-038288D02*
G01X0056905Y-038231D01*
G01X0056905Y-038231D02*
G01X0056849Y-038119D01*
G01X0056849Y-038119D02*
G01X0056849Y-037781D01*
G01X0056849Y-037781D02*
G01X0056905Y-037669D01*
G01X0056905Y-037669D02*
G01X0056961Y-037613D01*
G01X0056961Y-037613D02*
G01X0057073Y-037556D01*
G01X0057073Y-037556D02*
G01X0057242Y-037556D01*
G01X0057242Y-037556D02*
G01X0057355Y-037613D01*
G01X0057355Y-037613D02*
G01X0057411Y-037669D01*
G01X0057411Y-037669D02*
G01X0057467Y-037781D01*
G01X0057467Y-037781D02*
G01X0057467Y-038119D01*
G01X0057467Y-038119D02*
G01X0057411Y-038231D01*
G01X0057411Y-038231D02*
G01X0057355Y-038288D01*
G01X0057355Y-038288D02*
G01X0057242Y-038344D01*
G01X0057242Y-038344D02*
G01X0057073Y-038344D01*
G01X0058142Y-038344D02*
G01X0058030Y-038288D01*
G01X0058030Y-038288D02*
G01X0057973Y-038175D01*
G01X0057973Y-038175D02*
G01X0057973Y-037163D01*
G01X0059042Y-038288D02*
G01X0058930Y-038344D01*
G01X0058930Y-038344D02*
G01X0058705Y-038344D01*
G01X0058705Y-038344D02*
G01X0058592Y-038288D01*
G01X0058592Y-038288D02*
G01X0058536Y-038175D01*
G01X0058536Y-038175D02*
G01X0058536Y-037725D01*
G01X0058536Y-037725D02*
G01X0058592Y-037613D01*
G01X0058592Y-037613D02*
G01X0058705Y-037556D01*
G01X0058705Y-037556D02*
G01X0058930Y-037556D01*
G01X0058930Y-037556D02*
G01X0059042Y-037613D01*
G01X0059042Y-037613D02*
G01X0059098Y-037725D01*
G01X0059098Y-037725D02*
G01X0059098Y-037838D01*
G01X0059098Y-037838D02*
G01X0058536Y-037950D01*
G01X0059492Y-038794D02*
G01X0059548Y-038738D01*
G01X0059548Y-038738D02*
G01X0059661Y-038569D01*
G01X0059661Y-038569D02*
G01X0059717Y-038456D01*
G01X0059717Y-038456D02*
G01X0059773Y-038288D01*
G01X0059773Y-038288D02*
G01X0059829Y-038006D01*
G01X0059829Y-038006D02*
G01X0059829Y-037781D01*
G01X0059829Y-037781D02*
G01X0059773Y-037500D01*
G01X0059773Y-037500D02*
G01X0059717Y-037331D01*
G01X0059717Y-037331D02*
G01X0059661Y-037219D01*
G01X0059661Y-037219D02*
G01X0059548Y-037050D01*
G01X0059548Y-037050D02*
G01X0059492Y-036994D01*
G01X0000000Y0000000D02*
G54D11*
G01X0042000Y-034000D02*
G01X0042000Y-028000D01*
G01X0035000Y-034000D02*
G01X0042000Y-034000D01*
G01X0035000Y-028000D02*
G01X0035000Y-034000D01*
G01X0042000Y-028000D02*
G01X0035000Y-028000D01*
G01X0000000Y0000000D02*
G54D15*
G01X0046700Y-030300D02*
G75*
G03X0046700Y-030300I-000500J0000000D01*
G01X0045050Y-031100D02*
G01X0045050Y-029500D01*
G01X0047350Y-031100D02*
G01X0045050Y-031100D01*
G01X0047350Y-029500D02*
G01X0047350Y-031100D01*
G01X0045050Y-029500D02*
G01X0047350Y-029500D01*
G01X0047450Y-037000D02*
G01X0041200Y-037000D01*
G01X0068250Y-040250D02*
G01X0068250Y-037250D01*
G01X0070250Y-040250D02*
G01X0068250Y-040250D01*
G01X0070250Y-037250D02*
G01X0070250Y-040250D01*
G01X0068250Y-037250D02*
G01X0070250Y-037250D01*
G01X0042950Y-048500D02*
G01X0042950Y-045000D01*
G01X0048200Y-048500D02*
G01X0042950Y-048500D01*
G01X0048200Y-045000D02*
G01X0048200Y-048500D01*
G01X0042950Y-045000D02*
G01X0048200Y-045000D01*
G01X0041200Y-037000D02*
G01X0041200Y-032500D01*
G01X0047450Y-032500D02*
G01X0047450Y-037000D01*
G01X0041200Y-032500D02*
G01X0047450Y-032500D01*
M02*
